<svg width="14" height="14" viewBox="0 0 14 14" fill="none" xmlns="http://www.w3.org/2000/svg">
<path d="M1.70129 13H3.95129V10.75H1.70129V13ZM4.45129 13H6.95129V10.75H4.45129V13ZM1.70129 10.25H3.95129V7.75H1.70129V10.25ZM4.45129 10.25H6.95129V7.75H4.45129V10.25ZM1.70129 7.25H3.95129V5H1.70129V7.25ZM7.45129 13H9.95129V10.75H7.45129V13ZM4.45129 7.25H6.95129V5H4.45129V7.25ZM10.4513 13H12.7013V10.75H10.4513V13ZM7.45129 10.25H9.95129V7.75H7.45129V10.25ZM4.70129 3.5V1.25C4.70129 1.18229 4.67525 1.125 4.62317 1.07812C4.57629 1.02604 4.519 0.999999 4.45129 0.999999H3.95129C3.88359 0.999999 3.82369 1.02604 3.77161 1.07812C3.72473 1.125 3.70129 1.18229 3.70129 1.25V3.5C3.70129 3.56771 3.72473 3.6276 3.77161 3.67969C3.82369 3.72656 3.88359 3.75 3.95129 3.75H4.45129C4.519 3.75 4.57629 3.72656 4.62317 3.67969C4.67525 3.6276 4.70129 3.56771 4.70129 3.5ZM10.4513 10.25H12.7013V7.75H10.4513V10.25ZM7.45129 7.25H9.95129V5H7.45129V7.25ZM10.4513 7.25H12.7013V5H10.4513V7.25ZM10.7013 3.5V1.25C10.7013 1.18229 10.6753 1.125 10.6232 1.07812C10.5763 1.02604 10.519 0.999999 10.4513 0.999999H9.95129C9.88359 0.999999 9.82369 1.02604 9.77161 1.07812C9.72473 1.125 9.70129 1.18229 9.70129 1.25V3.5C9.70129 3.56771 9.72473 3.6276 9.77161 3.67969C9.82369 3.72656 9.88359 3.75 9.95129 3.75H10.4513C10.519 3.75 10.5763 3.72656 10.6232 3.67969C10.6753 3.6276 10.7013 3.56771 10.7013 3.5ZM13.7013 3V13C13.7013 13.2708 13.6023 13.5052 13.4044 13.7031C13.2065 13.901 12.9721 14 12.7013 14H1.70129C1.43046 14 1.19609 13.901 0.998169 13.7031C0.800252 13.5052 0.701294 13.2708 0.701294 13V3C0.701294 2.72917 0.800252 2.49479 0.998169 2.29687C1.19609 2.09896 1.43046 2 1.70129 2H2.70129V1.25C2.70129 0.906249 2.82369 0.611978 3.06848 0.367187C3.31327 0.122395 3.60754 -9.53674e-07 3.95129 -9.53674e-07H4.45129C4.79504 -9.53674e-07 5.08931 0.122395 5.33411 0.367187C5.5789 0.611978 5.70129 0.906249 5.70129 1.25V2H8.70129V1.25C8.70129 0.906249 8.82369 0.611978 9.06848 0.367187C9.31327 0.122395 9.60754 -9.53674e-07 9.95129 -9.53674e-07H10.4513C10.795 -9.53674e-07 11.0893 0.122395 11.3341 0.367187C11.5789 0.611978 11.7013 0.906249 11.7013 1.25V2H12.7013C12.9721 2 13.2065 2.09896 13.4044 2.29687C13.6023 2.49479 13.7013 2.72917 13.7013 3Z" fill="#EE3736"/>
</svg>
